<svg xmlns="http://www.w3.org/2000/svg" viewBox="0 0 200 200">
  <!-- Dark background with rounded corners -->
  <rect width="200" height="200" rx="36" fill="#050508"/>
  <!-- Subtle purple glow behind the A -->
  <ellipse cx="100" cy="105" rx="68" ry="60" fill="rgba(108,99,255,0.13)"/>
  <!-- Outer A contour -->
  <path d="M 100 18 L 196 182 L 156 182 L 120 122 L 80 122 L 44 182 L 4 182 Z"
        stroke="white" stroke-width="5" stroke-linejoin="round" stroke-linecap="round" fill="none"/>
  <!-- Inner A contour -->
  <path d="M 100 38 L 170 162 L 142 162 L 116 118 L 84 118 L 58 162 L 30 162 Z"
        stroke="white" stroke-width="3" stroke-linejoin="round" stroke-linecap="round" fill="none" opacity="0.72"/>
  <!-- 4-pointed sparkle star -->
  <path d="M 100 50 C 100 78,109 86,118 87 C 109 88,100 96,100 124 C 100 96,91 88,82 87 C 91 86,100 78,100 50 Z"
        fill="white"/>
</svg>
